<svg xmlns:xlink="http://www.w3.org/1999/xlink" version="1.1" class="highcharts-root" style="font-family: Helvetica, Arial, sans-serif; font-size: 1rem;" xmlns="http://www.w3.org/2000/svg" width="600" height="400" viewBox="0 0 600 400" role="img" aria-label="U.S Solar Employment Growth"><desc>Created with Highcharts 11.1.0</desc><defs><filter id="highcharts-drop-shadow-1"><feDropShadow dx="1" dy="1" flood-color="#000000" flood-opacity="0.75" stdDeviation="2.5"></feDropShadow></filter><clipPath id="highcharts-3qnxj05-65-"><rect x="0" y="0" width="312" height="295" fill="none"></rect></clipPath><clipPath id="highcharts-3qnxj05-77-"><rect x="0" y="0" width="312" height="295" fill="none"></rect></clipPath><clipPath id="highcharts-3qnxj05-122-"><rect x="77" y="61" width="312" height="295" fill="none"></rect></clipPath></defs><rect fill="#ffffff" class="highcharts-background" filter="none" x="0" y="0" width="600" height="400" rx="0" ry="0"></rect><rect fill="none" class="highcharts-plot-background" x="77" y="61" width="312" height="295" filter="none"></rect><g class="highcharts-pane-group" data-z-index="0"></g><g class="highcharts-grid highcharts-xaxis-grid" data-z-index="1"><path fill="none" stroke="#e6e6e6" stroke-width="0" stroke-dasharray="none" data-z-index="1" class="highcharts-grid-line" d="M 79.5 61 L 79.5 356" opacity="1"></path><path fill="none" stroke="#e6e6e6" stroke-width="0" stroke-dasharray="none" data-z-index="1" class="highcharts-grid-line" d="M 140.5 61 L 140.5 356" opacity="1"></path><path fill="none" stroke="#e6e6e6" stroke-width="0" stroke-dasharray="none" data-z-index="1" class="highcharts-grid-line" d="M 201.5 61 L 201.5 356" opacity="1"></path><path fill="none" stroke="#e6e6e6" stroke-width="0" stroke-dasharray="none" data-z-index="1" class="highcharts-grid-line" d="M 263.5 61 L 263.5 356" opacity="1"></path><path fill="none" stroke="#e6e6e6" stroke-width="0" stroke-dasharray="none" data-z-index="1" class="highcharts-grid-line" d="M 324.5 61 L 324.5 356" opacity="1"></path><path fill="none" stroke="#e6e6e6" stroke-width="0" stroke-dasharray="none" data-z-index="1" class="highcharts-grid-line" d="M 385.5 61 L 385.5 356" opacity="1"></path></g><g class="highcharts-grid highcharts-yaxis-grid" data-z-index="1"><path fill="none" stroke="#e6e6e6" stroke-width="1" stroke-dasharray="none" data-z-index="1" class="highcharts-grid-line" d="M 77 356.5 L 389 356.5" opacity="1"></path><path fill="none" stroke="#e6e6e6" stroke-width="1" stroke-dasharray="none" data-z-index="1" class="highcharts-grid-line" d="M 77 282.5 L 389 282.5" opacity="1"></path><path fill="none" stroke="#e6e6e6" stroke-width="1" stroke-dasharray="none" data-z-index="1" class="highcharts-grid-line" d="M 77 209.5 L 389 209.5" opacity="1"></path><path fill="none" stroke="#e6e6e6" stroke-width="1" stroke-dasharray="none" data-z-index="1" class="highcharts-grid-line" d="M 77 135.5 L 389 135.5" opacity="1"></path><path fill="none" stroke="#e6e6e6" stroke-width="1" stroke-dasharray="none" data-z-index="1" class="highcharts-grid-line" d="M 77 60.5 L 389 60.5" opacity="1"></path></g><rect fill="none" class="highcharts-plot-border" data-z-index="1" stroke="#cccccc" stroke-width="0" x="77" y="61" width="312" height="295"></rect><g class="highcharts-axis highcharts-xaxis" data-z-index="2"><path fill="none" class="highcharts-tick" stroke="#333333" stroke-width="1" d="M 79.5 356 L 79.5 366" opacity="1"></path><path fill="none" class="highcharts-tick" stroke="#333333" stroke-width="1" d="M 140.5 356 L 140.5 366" opacity="1"></path><path fill="none" class="highcharts-tick" stroke="#333333" stroke-width="1" d="M 201.5 356 L 201.5 366" opacity="1"></path><path fill="none" class="highcharts-tick" stroke="#333333" stroke-width="1" d="M 263.5 356 L 263.5 366" opacity="1"></path><path fill="none" class="highcharts-tick" stroke="#333333" stroke-width="1" d="M 324.5 356 L 324.5 366" opacity="1"></path><path fill="none" class="highcharts-tick" stroke="#333333" stroke-width="1" d="M 385.5 356 L 385.5 366" opacity="1"></path><path fill="none" class="highcharts-axis-line" stroke="#333333" stroke-width="1" data-z-index="7" d="M 77 356.5 L 389 356.5"></path></g><g class="highcharts-axis highcharts-yaxis" data-z-index="2"><text x="23.643768310546875" data-z-index="7" text-anchor="middle" transform="translate(0,0) rotate(270 23.643768310546875 208.5)" class="highcharts-axis-title" style="color: rgb(102, 102, 102); font-size: 0.8em; fill: rgb(102, 102, 102);" y="208.5">Number of Employees</text><path fill="none" class="highcharts-axis-line" stroke="#333333" stroke-width="0" data-z-index="7" d="M 77 61 L 77 356"></path></g><g class="highcharts-series-group" data-z-index="3" filter="none"><g class="highcharts-series highcharts-series-0 highcharts-line-series highcharts-color-0" data-z-index="0.1" opacity="1" transform="translate(77,61) scale(1 1)" clip-path="url(#highcharts-3qnxj05-77-)"><path fill="none" d="M 3.058823529409 230.19735 L 33.647058823527 223.23239999999998 L 64.235294117645 198.88162499999999 L 94.823529411764 174.30517500000002 L 125.41176470588 129.589075 L 156 84.985075 L 186.58823529412 41.98882499999999 L 217.17647058824 51.36834999999999 L 247.76470588235 66.14342500000001 L 278.35294117647 56.85534999999999 L 308.94117647059 66.95025000000001" class="highcharts-graph" data-z-index="1" stroke="#2caffe" stroke-width="1" stroke-linejoin="round" stroke-linecap="round" filter="none"></path></g><g class="highcharts-markers highcharts-series-0 highcharts-line-series highcharts-color-0" data-z-index="0.1" opacity="1" transform="translate(77,61) scale(1 1)" clip-path="none"><path fill="#2caffe" d="M 3.0000000000000004 234 A 4 4 0 1 1 3.003999999333336 233.99999800000018 Z" stroke="#ffffff" stroke-width="0" opacity="1" class="highcharts-point highcharts-color-0"></path><path fill="#2caffe" d="M 33 227 A 4 4 0 1 1 33.00399999933334 226.99999800000018 Z" stroke="#ffffff" stroke-width="0" opacity="1" class="highcharts-point highcharts-color-0"></path><path fill="#2caffe" d="M 64 203 A 4 4 0 1 1 64.00399999933333 202.99999800000018 Z" stroke="#ffffff" stroke-width="0" opacity="1" class="highcharts-point highcharts-color-0"></path><path fill="#2caffe" d="M 94 178 A 4 4 0 1 1 94.00399999933333 177.99999800000018 Z" stroke="#ffffff" stroke-width="0" opacity="1" class="highcharts-point highcharts-color-0"></path><path fill="#2caffe" d="M 125 134 A 4 4 0 1 1 125.00399999933333 133.99999800000018 Z" stroke="#ffffff" stroke-width="0" opacity="1" class="highcharts-point highcharts-color-0"></path><path fill="#2caffe" d="M 156 89 A 4 4 0 1 1 156.00399999933333 88.99999800000016 Z" stroke="#ffffff" stroke-width="0" opacity="1" class="highcharts-point highcharts-color-0"></path><path fill="#2caffe" d="M 186 46 A 4 4 0 1 1 186.00399999933333 45.99999800000017 Z" stroke="#ffffff" stroke-width="0" opacity="1" class="highcharts-point highcharts-color-0"></path><path fill="#2caffe" d="M 217 55 A 4 4 0 1 1 217.00399999933333 54.99999800000017 Z" stroke="#ffffff" stroke-width="0" opacity="1" class="highcharts-point highcharts-color-0"></path><path fill="#2caffe" d="M 247 70 A 4 4 0 1 1 247.00399999933333 69.99999800000016 Z" stroke="#ffffff" stroke-width="0" opacity="1" class="highcharts-point highcharts-color-0"></path><path fill="#2caffe" d="M 278 61 A 4 4 0 1 1 278.00399999933336 60.99999800000017 Z" stroke="#ffffff" stroke-width="0" opacity="1" class="highcharts-point highcharts-color-0"></path><path fill="#2caffe" d="M 308 71 A 4 4 0 1 1 308.00399999933336 70.99999800000016 Z" stroke="#ffffff" stroke-width="0" opacity="1" class="highcharts-point highcharts-color-0"></path></g><g class="highcharts-series highcharts-series-1 highcharts-line-series highcharts-color-1" data-z-index="0.1" opacity="1" transform="translate(77,61) scale(1 1)" clip-path="url(#highcharts-3qnxj05-77-)"><path fill="none" d="M 3.058823529409 258.2489 L 33.647058823527 239.037025 L 64.235294117645 251.13055 L 94.823529411764 250.969775 L 125.41176470588 247.07725 L 156 250.33405 L 186.58823529412 238.771525 L 217.17647058824 240.594625 L 247.76470588235 245.25415 L 278.35294117647 244.491575 L 308.94117647059 249.20125000000002" class="highcharts-graph" data-z-index="1" stroke="#544fc5" stroke-width="1" stroke-linejoin="round" stroke-linecap="round" filter="none"></path></g><g class="highcharts-markers highcharts-series-1 highcharts-line-series highcharts-color-1" data-z-index="0.1" opacity="1" transform="translate(77,61) scale(1 1)" clip-path="none"><path fill="#544fc5" d="M 3 254 L 7 258 L 3 262 L -1 258 Z" stroke="#ffffff" stroke-width="0" opacity="1" class="highcharts-point highcharts-color-1"></path><path fill="#544fc5" d="M 33 235 L 37 239 L 33 243 L 29 239 Z" stroke="#ffffff" stroke-width="0" opacity="1" class="highcharts-point highcharts-color-1"></path><path fill="#544fc5" d="M 64 247 L 68 251 L 64 255 L 60 251 Z" stroke="#ffffff" stroke-width="0" opacity="1" class="highcharts-point highcharts-color-1"></path><path fill="#544fc5" d="M 94 247 L 98 251 L 94 255 L 90 251 Z" stroke="#ffffff" stroke-width="0" opacity="1" class="highcharts-point highcharts-color-1"></path><path fill="#544fc5" d="M 125 243 L 129 247 L 125 251 L 121 247 Z" stroke="#ffffff" stroke-width="0" opacity="1" class="highcharts-point highcharts-color-1"></path><path fill="#544fc5" d="M 156 246 L 160 250 L 156 254 L 152 250 Z" stroke="#ffffff" stroke-width="0" opacity="1" class="highcharts-point highcharts-color-1"></path><path fill="#544fc5" d="M 186 235 L 190 239 L 186 243 L 182 239 Z" stroke="#ffffff" stroke-width="0" opacity="1" class="highcharts-point highcharts-color-1"></path><path fill="#544fc5" d="M 217 237 L 221 241 L 217 245 L 213 241 Z" stroke="#ffffff" stroke-width="0" opacity="1" class="highcharts-point highcharts-color-1"></path><path fill="#544fc5" d="M 247 241 L 251 245 L 247 249 L 243 245 Z" stroke="#ffffff" stroke-width="0" opacity="1" class="highcharts-point highcharts-color-1"></path><path fill="#544fc5" d="M 278 240 L 282 244 L 278 248 L 274 244 Z" stroke="#ffffff" stroke-width="0" opacity="1" class="highcharts-point highcharts-color-1"></path><path fill="#544fc5" d="M 308 245 L 312 249 L 308 253 L 304 249 Z" stroke="#ffffff" stroke-width="0" opacity="1" class="highcharts-point highcharts-color-1"></path></g><g class="highcharts-series highcharts-series-2 highcharts-line-series highcharts-color-2" data-z-index="0.1" opacity="1" transform="translate(77,61) scale(1 1)" clip-path="url(#highcharts-3qnxj05-77-)"><path fill="none" d="M 3.058823529409 277.6776 L 33.647058823527 250.75 L 64.235294117645 271.392625 L 94.823529411764 265.837775 L 125.41176470588 265.227125 L 156 259.043925 L 186.58823529412 247.58317499999998 L 217.17647058824 249.4048 L 247.76470588235 251.866575 L 278.35294117647 251.910825 L 308.94117647059 257.147075" class="highcharts-graph" data-z-index="1" stroke="#00e272" stroke-width="1" stroke-linejoin="round" stroke-linecap="round" filter="none"></path></g><g class="highcharts-markers highcharts-series-2 highcharts-line-series highcharts-color-2" data-z-index="0.1" opacity="1" transform="translate(77,61) scale(1 1)" clip-path="none"><path fill="#00e272" d="M -1 274 L 7 274 L 7 282 L -1 282 Z" stroke="#ffffff" stroke-width="0" opacity="1" class="highcharts-point highcharts-color-2"></path><path fill="#00e272" d="M 29 247 L 37 247 L 37 255 L 29 255 Z" stroke="#ffffff" stroke-width="0" opacity="1" class="highcharts-point highcharts-color-2"></path><path fill="#00e272" d="M 60 267 L 68 267 L 68 275 L 60 275 Z" stroke="#ffffff" stroke-width="0" opacity="1" class="highcharts-point highcharts-color-2"></path><path fill="#00e272" d="M 90 262 L 98 262 L 98 270 L 90 270 Z" stroke="#ffffff" stroke-width="0" opacity="1" class="highcharts-point highcharts-color-2"></path><path fill="#00e272" d="M 121 261 L 129 261 L 129 269 L 121 269 Z" stroke="#ffffff" stroke-width="0" opacity="1" class="highcharts-point highcharts-color-2"></path><path fill="#00e272" d="M 152 255 L 160 255 L 160 263 L 152 263 Z" stroke="#ffffff" stroke-width="0" opacity="1" class="highcharts-point highcharts-color-2"></path><path fill="#00e272" d="M 182 244 L 190 244 L 190 252 L 182 252 Z" stroke="#ffffff" stroke-width="0" opacity="1" class="highcharts-point highcharts-color-2"></path><path fill="#00e272" d="M 213 245 L 221 245 L 221 253 L 213 253 Z" stroke="#ffffff" stroke-width="0" opacity="1" class="highcharts-point highcharts-color-2"></path><path fill="#00e272" d="M 243 248 L 251 248 L 251 256 L 243 256 Z" stroke="#ffffff" stroke-width="0" opacity="1" class="highcharts-point highcharts-color-2"></path><path fill="#00e272" d="M 274 248 L 282 248 L 282 256 L 274 256 Z" stroke="#ffffff" stroke-width="0" opacity="1" class="highcharts-point highcharts-color-2"></path><path fill="#00e272" d="M 304 253 L 312 253 L 312 261 L 304 261 Z" stroke="#ffffff" stroke-width="0" opacity="1" class="highcharts-point highcharts-color-2"></path></g><g class="highcharts-series highcharts-series-3 highcharts-line-series highcharts-color-3" data-z-index="0.1" opacity="1" transform="translate(77,61) scale(1 1)" clip-path="url(#highcharts-3qnxj05-77-)"><path fill="none" d="M 247.76470588235 278.5331 L 278.35294117647 278.45345 L 308.94117647059 280.136425" class="highcharts-graph" data-z-index="1" stroke="#fe6a35" stroke-width="1" stroke-linejoin="round" stroke-linecap="round" filter="none"></path></g><g class="highcharts-markers highcharts-series-3 highcharts-line-series highcharts-color-3" data-z-index="0.1" opacity="1" transform="translate(77,61) scale(1 1)" clip-path="none"><path fill="#fe6a35" d="M 247 275 L 251 283 L 243 283 Z" stroke="#ffffff" stroke-width="0" opacity="1" class="highcharts-point highcharts-color-3"></path><path fill="#fe6a35" d="M 278 274 L 282 282 L 274 282 Z" stroke="#ffffff" stroke-width="0" opacity="1" class="highcharts-point highcharts-color-3"></path><path fill="#fe6a35" d="M 308 276 L 312 284 L 304 284 Z" stroke="#ffffff" stroke-width="0" opacity="1" class="highcharts-point highcharts-color-3"></path></g><g class="highcharts-series highcharts-series-4 highcharts-line-series highcharts-color-4" data-z-index="0.1" opacity="1" transform="translate(77,61) scale(1 1)" clip-path="url(#highcharts-3qnxj05-77-)"><path fill="none" d="M 3.058823529409 262.6857 L 33.647058823527 286.8167 L 64.235294117645 283.045125 L 94.823529411764 278.4092 L 125.41176470588 281.741225 L 156 277.5714 L 186.58823529412 268.04585 L 217.17647058824 269.4825 L 247.76470588235 275.746825 L 278.35294117647 277.43865 L 308.94117647059 280.142325" class="highcharts-graph" data-z-index="1" stroke="#6b8abc" stroke-width="1" stroke-linejoin="round" stroke-linecap="round" filter="none"></path></g><g class="highcharts-markers highcharts-series-4 highcharts-line-series highcharts-color-4" data-z-index="0.1" opacity="1" transform="translate(77,61) scale(1 1)" clip-path="none"><path fill="#6b8abc" d="M -1 259 L 7 259 L 3 267 Z" stroke="#ffffff" stroke-width="0" opacity="1" class="highcharts-point highcharts-color-4"></path><path fill="#6b8abc" d="M 29 283 L 37 283 L 33 291 Z" stroke="#ffffff" stroke-width="0" opacity="1" class="highcharts-point highcharts-color-4"></path><path fill="#6b8abc" d="M 60 279 L 68 279 L 64 287 Z" stroke="#ffffff" stroke-width="0" opacity="1" class="highcharts-point highcharts-color-4"></path><path fill="#6b8abc" d="M 90 274 L 98 274 L 94 282 Z" stroke="#ffffff" stroke-width="0" opacity="1" class="highcharts-point highcharts-color-4"></path><path fill="#6b8abc" d="M 121 278 L 129 278 L 125 286 Z" stroke="#ffffff" stroke-width="0" opacity="1" class="highcharts-point highcharts-color-4"></path><path fill="#6b8abc" d="M 152 274 L 160 274 L 156 282 Z" stroke="#ffffff" stroke-width="0" opacity="1" class="highcharts-point highcharts-color-4"></path><path fill="#6b8abc" d="M 182 264 L 190 264 L 186 272 Z" stroke="#ffffff" stroke-width="0" opacity="1" class="highcharts-point highcharts-color-4"></path><path fill="#6b8abc" d="M 213 265 L 221 265 L 217 273 Z" stroke="#ffffff" stroke-width="0" opacity="1" class="highcharts-point highcharts-color-4"></path><path fill="#6b8abc" d="M 243 272 L 251 272 L 247 280 Z" stroke="#ffffff" stroke-width="0" opacity="1" class="highcharts-point highcharts-color-4"></path><path fill="#6b8abc" d="M 274 273 L 282 273 L 278 281 Z" stroke="#ffffff" stroke-width="0" opacity="1" class="highcharts-point highcharts-color-4"></path><path fill="#6b8abc" d="M 304 276 L 312 276 L 308 284 Z" stroke="#ffffff" stroke-width="0" opacity="1" class="highcharts-point highcharts-color-4"></path></g></g><text x="10" text-anchor="start" class="highcharts-title" data-z-index="4" style="font-size: 1.2em; color: rgb(51, 51, 51); font-weight: bold; fill: rgb(51, 51, 51);" y="25">U.S Solar Employment Growth</text><text x="10" text-anchor="start" class="highcharts-subtitle" data-z-index="4" style="color: rgb(102, 102, 102); font-size: 0.8em; fill: rgb(102, 102, 102);" y="46">By Job Category. Source: <a xlink:href="https://irecusa.org/programs/solar-jobs-census/" target="_blank"><tspan>IREC</tspan></a>.</text><text x="10" text-anchor="start" class="highcharts-caption" data-z-index="4" style="color: rgb(102, 102, 102); font-size: 0.8em; fill: rgb(102, 102, 102);" y="397"></text><g class="highcharts-legend highcharts-no-tooltip" data-z-index="7" transform="translate(401,145)"><rect fill="none" class="highcharts-legend-box" rx="0" ry="0" stroke="#999999" stroke-width="0" filter="none" x="0" y="0" width="188" height="106"></rect><g data-z-index="1"><g><g class="highcharts-legend-item highcharts-line-series highcharts-color-0 highcharts-series-0" data-z-index="1" transform="translate(8,3)"><path fill="none" class="highcharts-graph" stroke-width="1" stroke-linecap="round" d="M 0.5 13 L 15.5 13" stroke="#2caffe"></path><path fill="#2caffe" d="M 8 17 A 4 4 0 1 1 8.003999999333336 16.99999800000017 Z" class="highcharts-point" stroke="#ffffff" stroke-width="0" opacity="1"></path><text x="21" text-anchor="start" data-z-index="2" style="color: rgb(51, 51, 51); cursor: pointer; font-size: 0.8em; text-decoration: none; fill: rgb(51, 51, 51);" y="17">Installation &amp; Developers</text></g><g class="highcharts-legend-item highcharts-line-series highcharts-color-1 highcharts-series-1" data-z-index="1" transform="translate(8,22)"><path fill="none" class="highcharts-graph" stroke-width="1" stroke-linecap="round" d="M 0.5 13 L 15.5 13" stroke="#544fc5"></path><path fill="#544fc5" d="M 8 9 L 12 13 L 8 17 L 4 13 Z" class="highcharts-point" stroke="#ffffff" stroke-width="0" opacity="1"></path><text x="21" y="17" text-anchor="start" data-z-index="2" style="color: rgb(51, 51, 51); cursor: pointer; font-size: 0.8em; text-decoration: none; fill: rgb(51, 51, 51);">Manufacturing</text></g><g class="highcharts-legend-item highcharts-line-series highcharts-color-2 highcharts-series-2" data-z-index="1" transform="translate(8,41)"><path fill="none" class="highcharts-graph" stroke-width="1" stroke-linecap="round" d="M 0.5 13 L 15.5 13" stroke="#00e272"></path><path fill="#00e272" d="M 4 9 L 12 9 L 12 17 L 4 17 Z" class="highcharts-point" stroke="#ffffff" stroke-width="0" opacity="1"></path><text x="21" y="17" text-anchor="start" data-z-index="2" style="color: rgb(51, 51, 51); cursor: pointer; font-size: 0.8em; text-decoration: none; fill: rgb(51, 51, 51);">Sales &amp; Distribution</text></g><g class="highcharts-legend-item highcharts-line-series highcharts-color-3 highcharts-series-3" data-z-index="1" transform="translate(8,60)"><path fill="none" class="highcharts-graph" stroke-width="1" stroke-linecap="round" d="M 0.5 13 L 15.5 13" stroke="#fe6a35"></path><path fill="#fe6a35" d="M 8 9 L 12 17 L 4 17 Z" class="highcharts-point" stroke="#ffffff" stroke-width="0" opacity="1"></path><text x="21" y="17" text-anchor="start" data-z-index="2" style="color: rgb(51, 51, 51); cursor: pointer; font-size: 0.8em; text-decoration: none; fill: rgb(51, 51, 51);">Operations &amp; Maintenance</text></g><g class="highcharts-legend-item highcharts-line-series highcharts-color-4 highcharts-series-4" data-z-index="1" transform="translate(8,79)"><path fill="none" class="highcharts-graph" stroke-width="1" stroke-linecap="round" d="M 0.5 13 L 15.5 13" stroke="#6b8abc"></path><path fill="#6b8abc" d="M 4 9 L 12 9 L 8 17 Z" class="highcharts-point" stroke="#ffffff" stroke-width="0" opacity="1"></path><text x="21" y="17" text-anchor="start" data-z-index="2" style="color: rgb(51, 51, 51); cursor: pointer; font-size: 0.8em; text-decoration: none; fill: rgb(51, 51, 51);">Other</text></g></g></g></g><g class="highcharts-axis-labels highcharts-xaxis-labels" data-z-index="7"><text x="80.058823529409" text-anchor="middle" transform="translate(0,0)" style="color: rgb(51, 51, 51); cursor: default; font-size: 0.8em; fill: rgb(51, 51, 51);" y="383" opacity="1">2010</text><text x="141.23529411764" text-anchor="middle" transform="translate(0,0)" style="color: rgb(51, 51, 51); cursor: default; font-size: 0.8em; fill: rgb(51, 51, 51);" y="383" opacity="1">2012</text><text x="202.41176470588" text-anchor="middle" transform="translate(0,0)" style="color: rgb(51, 51, 51); cursor: default; font-size: 0.8em; fill: rgb(51, 51, 51);" y="383" opacity="1">2014</text><text x="263.58823529412" text-anchor="middle" transform="translate(0,0)" style="color: rgb(51, 51, 51); cursor: default; font-size: 0.8em; fill: rgb(51, 51, 51);" y="383" opacity="1">2016</text><text x="324.76470588235" text-anchor="middle" transform="translate(0,0)" style="color: rgb(51, 51, 51); cursor: default; font-size: 0.8em; fill: rgb(51, 51, 51);" y="383" opacity="1">2018</text><text x="385.94117647059" text-anchor="middle" transform="translate(0,0)" style="color: rgb(51, 51, 51); cursor: default; font-size: 0.8em; fill: rgb(51, 51, 51);" y="383" opacity="1">2020</text></g><g class="highcharts-axis-labels highcharts-yaxis-labels" data-z-index="7"><text x="62" text-anchor="end" transform="translate(0,0)" style="color: rgb(51, 51, 51); cursor: default; font-size: 0.8em; fill: rgb(51, 51, 51);" y="361" opacity="1">0</text><text x="62" text-anchor="end" transform="translate(0,0)" style="color: rgb(51, 51, 51); cursor: default; font-size: 0.8em; fill: rgb(51, 51, 51);" y="287" opacity="1">50k</text><text x="62" text-anchor="end" transform="translate(0,0)" style="color: rgb(51, 51, 51); cursor: default; font-size: 0.8em; fill: rgb(51, 51, 51);" y="214" opacity="1">100k</text><text x="62" text-anchor="end" transform="translate(0,0)" style="color: rgb(51, 51, 51); cursor: default; font-size: 0.8em; fill: rgb(51, 51, 51);" y="140" opacity="1">150k</text><text x="62" text-anchor="end" transform="translate(0,0)" style="color: rgb(51, 51, 51); cursor: default; font-size: 0.8em; fill: rgb(51, 51, 51);" y="66" opacity="1">200k</text></g><text x="590" class="highcharts-credits" text-anchor="end" data-z-index="8" y="395" style="cursor: pointer; color: rgb(153, 153, 153); font-size: 0.6em; fill: rgb(153, 153, 153);">Highcharts.com</text><g class="highcharts-control-points" data-z-index="99" clip-path="url(#highcharts-3qnxj05-122-)"></g></svg>